<svg width="54" height="53" viewBox="0 0 54 53" fill="none" xmlns="http://www.w3.org/2000/svg">
<g id="Logo Aurory Small">
<path id="Vector" d="M26.9997 -0.00195312C41.6247 -0.00195312 53.5287 11.8892 53.5287 26.4986C53.5287 41.108 41.6247 52.9991 26.9997 52.9991C12.3746 52.9991 0.470703 41.108 0.470703 26.4986C0.470703 11.8892 12.3746 -0.00195312 26.9997 -0.00195312ZM26.9997 50.5081C40.2538 50.5081 51.0349 39.7385 51.0349 26.4986C51.0349 13.2586 40.2538 2.48226 26.9997 2.48226C13.7455 2.48226 2.95758 13.2518 2.95758 26.4917C2.95758 39.7317 13.7386 50.5012 26.9997 50.5012V50.5081Z" fill="url(#paint0_linear_5028_66590)"/>
<g id="Group">
<path id="Vector_2" d="M27.0409 7.2793C26.8412 7.58208 26.7241 7.72659 26.6414 7.89863C25.6563 9.83232 24.6918 11.7729 23.6861 13.6928C23.4587 14.1332 23.4381 14.4636 23.6723 14.9108C25.0501 17.5396 26.3934 20.1958 27.7574 22.8383C28.7149 24.7032 29.6794 26.5681 30.6369 28.4398H27.2545L29.8516 33.1192H33.0343V33.0917C34.0056 34.9772 34.9838 36.8696 35.9551 38.7551C36.0722 38.9822 36.3478 39.285 36.5545 39.285C38.8278 39.3263 41.0942 39.3057 43.5673 39.3057C38.0287 28.5637 32.5658 17.98 27.0478 7.28618L27.0409 7.2793Z" fill="white"/>
<path id="Vector_3" d="M23.0864 27.9232C22.6869 27.0355 22.1978 26.1891 21.75 25.3289C21.0818 24.0627 20.4204 22.7965 19.6764 21.3789C16.5627 27.414 13.5316 33.3045 10.4385 39.3051C12.8771 39.3051 15.1711 39.312 17.4651 39.2845C17.6373 39.2845 17.8716 39.0436 17.968 38.8578C19.2493 36.3943 20.5306 33.9307 21.7982 31.4603L20.1173 28.4324H23.1897C23.1897 28.2535 23.1553 28.0677 23.0864 27.9232Z" fill="white"/>
</g>
</g>
<defs>
<linearGradient id="paint0_linear_5028_66590" x1="26.9997" y1="3.01901" x2="26.9997" y2="48.8978" gradientUnits="userSpaceOnUse">
<stop offset="0.14" stop-color="#00EADB"/>
<stop offset="0.5" stop-color="#638ED4"/>
<stop offset="1" stop-color="#E656CB"/>
</linearGradient>
</defs>
</svg>
