<svg width="63" height="61" viewBox="0 0 63 61" fill="none" xmlns="http://www.w3.org/2000/svg">
<rect x="0.651367" y="0.0761719" width="60.8491" height="60.8491" rx="8.11321" fill="#5865F2"/>
<path d="M22.9615 41.1405C21.8783 42.7208 20.7179 44.2468 19.4846 45.7131C10.6668 45.4622 7.32129 39.739 7.32129 39.739C7.44662 31.6298 9.41173 23.655 13.0684 16.416C16.2827 13.9014 20.1992 12.4484 24.2758 12.258L25.4706 15.0181C27.1772 14.7812 28.8975 14.6574 30.6203 14.6477C32.3509 14.6534 34.0791 14.7731 35.7939 15.0061L36.9887 12.2461C41.0693 12.4468 44.9863 13.9125 48.1962 16.4399C51.841 23.6736 53.7979 31.6398 53.9194 39.739C53.9194 39.739 50.5739 45.4622 41.7561 45.7131C40.5415 44.2539 39.401 42.7345 38.3389 41.1608M46.0574 37.6958C41.4693 40.0197 37.0306 42.3437 30.6203 42.3437C24.2101 42.3437 19.7713 40.0197 15.1832 37.6958" stroke="white" stroke-width="2.0283" stroke-linecap="round" stroke-linejoin="round"/>
<path d="M23.2693 35.6518C25.4799 35.6518 27.2719 33.8597 27.2719 31.6491C27.2719 29.4385 25.4799 27.6465 23.2693 27.6465C21.0587 27.6465 19.2666 29.4385 19.2666 31.6491C19.2666 33.8597 21.0587 35.6518 23.2693 35.6518Z" stroke="white" stroke-width="2.0283" stroke-linecap="round" stroke-linejoin="round"/>
<path d="M37.9724 35.6518C40.183 35.6518 41.975 33.8597 41.975 31.6491C41.975 29.4385 40.183 27.6465 37.9724 27.6465C35.7618 27.6465 33.9697 29.4385 33.9697 31.6491C33.9697 33.8597 35.7618 35.6518 37.9724 35.6518Z" stroke="white" stroke-width="2.0283" stroke-linecap="round" stroke-linejoin="round"/>
</svg>
