<svg width="5" height="52" viewBox="0 0 5 52" fill="none" xmlns="http://www.w3.org/2000/svg">
<path opacity="0.3" d="M0.0658545 26.0302C0.0658545 26.0302 0.0598677 26.0725 0.0898015 26.0906C0.0538809 26.0785 0.0718412 26.0483 0.0658545 26.0302ZM2.52642 23.8625C2.52642 23.8625 2.49648 23.8686 2.47852 23.8987C2.49648 23.9048 2.51444 23.8867 2.52642 23.8625ZM0.137696 26.1993C0.137696 26.1993 0.155656 26.1993 0.161643 26.1932C0.155656 26.1932 0.143682 26.2053 0.137696 26.1993ZM0.119735 27.3223C0.119735 27.3223 0.119735 27.3042 0.113749 27.2921C0.113749 27.2982 0.113749 27.3103 0.119735 27.3223ZM2.67609 23.8323C2.67609 23.8323 2.6701 23.8384 2.66411 23.8444L2.67609 23.8323ZM4.92112 25.517C4.89119 25.5653 4.92112 25.5773 4.95106 25.6015L4.91514 25.5834C4.95106 25.6679 4.84928 25.6558 4.90316 25.7524C4.92711 25.7585 4.90915 25.7162 4.93909 25.7222C4.98099 25.8128 4.89119 25.8913 4.93909 25.994C4.93909 25.994 4.92112 25.9758 4.92112 25.9819V26.0302C4.92112 26.0302 4.89119 26.0423 4.87323 26.0302C4.8433 26.0302 4.86724 26.0543 4.86724 26.0785C4.92112 26.1147 4.95106 26.0242 4.98099 26.1026C4.90915 26.0785 4.96303 26.1811 4.91514 26.1691C4.89718 26.2959 4.96303 26.3744 4.96902 26.4951C4.9331 26.4951 4.91514 26.5253 4.87323 26.5253L4.89718 26.5555H4.8852C4.86126 26.5978 4.90915 26.6219 4.9331 26.5917C4.9331 26.5736 4.89718 26.5615 4.93909 26.5434C4.90316 26.5736 4.97501 26.628 4.92112 26.6581C4.92112 26.6581 4.90915 26.6581 4.89718 26.6581V26.6944H4.95106C4.93909 26.8333 4.95106 26.9902 4.95705 27.0989C4.93909 27.1533 4.93909 27.2438 4.89718 27.2559C4.89119 27.2922 4.89718 27.3344 4.89718 27.3706C4.90316 27.425 4.90915 27.4854 4.91514 27.5216C4.87922 27.5639 4.91514 27.7571 4.83731 27.7269L4.85527 27.8054H4.83731C4.83731 27.8658 4.81336 27.8235 4.7954 27.8839L4.83132 27.902C4.7954 27.9503 4.77146 28.0831 4.7056 28.1616H4.69961C4.68165 28.1918 4.69363 28.216 4.65172 28.2401L4.6158 28.222C4.52001 28.5118 4.21469 28.5964 3.95725 28.7232C3.78364 28.6809 3.68186 28.856 3.52022 28.7232C3.4843 28.7051 3.46634 28.7836 3.51423 28.7836C3.20891 28.8017 2.86766 28.7413 2.55635 28.7654C2.32287 28.7232 2.02952 28.7473 1.89182 28.6628C1.89182 28.6809 1.90379 28.693 1.91577 28.7051C1.86787 28.7171 1.89182 28.6628 1.88583 28.6507C1.86189 28.6628 1.81998 28.6688 1.80202 28.699L1.81998 28.7232C1.65834 28.6809 1.48472 28.7413 1.34104 28.6386V28.6688C1.24525 28.6688 1.16742 28.542 0.993804 28.5601C1.02374 28.536 1.07762 28.5601 1.04768 28.5179C0.802227 28.5179 0.736373 28.2884 0.604664 28.1314C0.622624 28.1556 0.652558 28.1314 0.670518 28.1194C0.646571 28.1073 0.628611 28.0952 0.604664 28.0831C0.604664 28.0348 0.634598 28.1013 0.652558 28.0711C0.622624 27.9986 0.580717 28.1073 0.550783 28.0288C0.59269 27.9926 0.526836 27.9563 0.538809 27.9322C0.532822 27.9201 0.490915 27.9322 0.496902 27.908C0.484928 27.896 0.520849 27.9201 0.520849 27.908C0.496902 27.8778 0.478942 27.8477 0.460981 27.8175C0.484928 27.8175 0.484928 27.7873 0.502889 27.7933C0.437034 27.6726 0.401114 27.5397 0.401114 27.3948V26.8574C0.401114 26.8574 0.383153 26.8514 0.37118 26.8393C0.353219 26.8393 0.359206 26.8574 0.37118 26.8755V26.9359C0.347233 26.948 0.329272 26.8816 0.311312 26.9178C0.311312 26.9359 0.311312 26.954 0.335259 26.9661C0.335259 26.9661 0.317299 26.9661 0.311312 26.954C0.341246 27.0084 0.449008 27.0446 0.377166 27.117C0.365193 27.0567 0.341246 27.0869 0.299338 27.0687C0.317299 27.111 0.269405 27.0808 0.257431 27.105L0.341246 27.117C0.329272 27.1714 0.275391 27.1231 0.245458 27.1352C0.257431 27.1533 0.245458 27.1955 0.275391 27.1835C0.263418 27.1955 0.263418 27.2257 0.233484 27.1955C0.209537 27.2438 0.269405 27.2438 0.287365 27.2559C0.209537 27.3405 0.281378 27.3103 0.209537 27.4008C0.18559 27.3827 0.119735 27.3163 0.191577 27.2921C0.16763 27.2801 0.119735 27.2921 0.113749 27.3163C0.113749 27.3042 0.101775 27.2922 0.107762 27.2861C0.137696 27.2861 0.191577 27.2982 0.179603 27.2318C0.137696 27.1774 0.0538809 27.2499 0.0718412 27.1472L0.0838148 27.1352C0.0838148 27.1352 0.0838148 27.1653 0.101775 27.1774C0.16763 27.1895 0.0898015 27.1291 0.143682 27.1472C0.173616 27.0929 0.0838148 27.0627 0.0838148 27.0144C0.143682 26.9721 0.131709 27.0687 0.179603 27.0385V26.9963C0.191577 27.0627 0.233484 26.9721 0.257431 26.9963C0.179603 26.9842 0.257431 26.9359 0.173616 26.9601C0.161643 26.8816 0.101775 26.7608 0.197563 26.7185C0.161643 26.6883 0.173616 26.7487 0.149669 26.7004C0.179603 26.6763 0.173616 26.6098 0.179603 26.5736C0.209537 26.5857 0.22151 26.5736 0.22151 26.5495C0.20355 26.5434 0.179603 26.5495 0.173616 26.5012C0.197563 26.5012 0.20355 26.4891 0.215524 26.483C0.215524 26.4649 0.20355 26.4589 0.191577 26.4589L0.22151 26.4408L0.179603 26.3985H0.191577C0.18559 26.3381 0.143682 26.3925 0.119735 26.4106V26.3804C0.0718412 26.4166 0.0658545 26.3321 0.0598677 26.3019C0.0718412 26.3321 0.119735 26.32 0.155656 26.3381C0.179603 26.3381 0.161643 26.3019 0.173616 26.2898C0.161643 26.2536 0.143682 26.2959 0.113749 26.2898L0.137696 26.2476L0.149669 26.2596C0.149669 26.2596 0.197563 26.2234 0.197563 26.1993C0.18559 26.1872 0.173616 26.1993 0.161643 26.1993C0.18559 26.1811 0.20355 26.1509 0.233484 26.1811C0.263418 26.1811 0.257431 26.1389 0.239471 26.1328C0.191577 26.1691 0.209537 26.0242 0.125722 26.0725C0.155656 26.0664 0.0898015 26.0121 0.0898015 26C0.0718412 26 0.0598677 26.006 0.0538809 26.0181C0.0538809 26.0181 0.0478942 26.0181 0.0419074 26.0121L0 26.0483C0.0179603 26 0.0359206 25.9879 0.0898015 25.9879C0.0838148 25.9336 0.0658545 25.9698 0.0478942 25.9155C0.0718412 25.9396 0.077828 25.9275 0.0838148 25.9155C0.0957883 25.9336 0.131709 25.9517 0.137696 25.9879C0.137696 25.9215 0.251444 25.9517 0.251444 25.9758C0.257431 25.9517 0.299338 25.9396 0.287365 25.9034L0.22151 25.8792L0.281378 25.8672C0.281378 25.8672 0.275391 25.8128 0.245458 25.8189C0.215524 25.8732 0.113749 25.7826 0.0957883 25.8007C0.119735 25.7887 0.155656 25.8007 0.155656 25.7766C0.161643 25.7826 0.179603 25.7887 0.191577 25.7766C0.161643 25.7343 0.209537 25.7102 0.143682 25.7041V25.686C0.143682 25.686 0.113749 25.6739 0.101775 25.6679L0.131709 25.6558L0.0718412 25.6196C0.0957883 25.5773 0.101775 25.5109 0.131709 25.4928L0.107762 25.4747C0.107762 25.4747 0.197563 25.4747 0.191577 25.4324C0.131709 25.4264 0.173616 25.3479 0.107762 25.3418C0.20355 25.3177 0.0898015 25.2573 0.191577 25.2694C0.179603 25.2211 0.179603 25.1607 0.107762 25.1547H0.161643C0.125722 25.1547 0.155656 25.1245 0.149669 25.1064C0.191577 25.1124 0.143682 25.0098 0.227497 25.0098C0.227497 24.9554 0.16763 24.9796 0.149669 24.9916C0.18559 24.9554 0.209537 24.9373 0.191577 24.8648C0.179603 24.8467 0.191577 24.7803 0.16763 24.7622L0.131709 24.7803L0.22151 24.738C0.16763 24.7018 0.269405 24.6777 0.275391 24.6173C0.275391 24.6294 0.281378 24.6354 0.287365 24.6354L0.311312 24.575C0.281378 24.5388 0.227497 24.5871 0.209537 24.575C0.245458 24.4663 0.377167 24.4422 0.4071 24.4905C0.395127 24.4422 0.395127 24.4482 0.413087 24.3878L0.38914 24.3999C0.466968 24.3395 0.383153 24.249 0.484928 24.1342C0.460981 24.098 0.401114 24.1765 0.401114 24.1222C0.431047 24.0738 0.514862 24.0074 0.568743 24.0195C0.562756 24.098 0.652558 24.0316 0.652558 24.092C0.700452 24.0678 0.652558 24.0316 0.676505 23.9893C0.670518 24.0074 0.712426 24.0678 0.730386 24.092L0.820187 24.0557C0.820187 24.0557 0.790254 24.0255 0.808214 24.0074C0.826174 24.0255 0.874068 24.0195 0.886042 24.0074C0.898015 24.0255 0.951896 24.0074 0.969857 24.0135C0.987817 24.0014 1.00578 23.935 1.03571 23.9772C1.01775 23.9772 1.01775 23.9954 1.00578 24.0014C1.02972 24.0014 1.04768 24.0135 1.07163 24.0195C1.01775 23.9772 1.17341 23.9531 1.11354 23.935C1.12551 23.8987 1.16742 23.8987 1.19735 23.9108C1.15545 23.9108 1.18538 23.941 1.17341 23.9591C1.22729 23.9591 1.25722 23.9591 1.28117 23.9591C1.31709 23.935 1.29314 23.9289 1.28117 23.8927H1.35301C1.38294 23.8746 1.3111 23.8625 1.36498 23.8444C1.34702 23.8686 1.38294 23.941 1.41886 23.935C1.41288 23.9531 1.41886 23.9712 1.38893 23.9471C1.38294 23.9652 1.38893 23.9772 1.4009 23.9954C1.45478 23.941 1.47275 23.8565 1.56853 23.8565C1.61044 23.8384 1.65235 23.9048 1.66432 23.8444H1.73018C1.72419 23.8806 1.6763 23.8444 1.68228 23.8806C1.74215 23.8927 1.74814 23.8625 1.78406 23.8987C1.76011 23.8987 1.72419 23.8987 1.73018 23.941C1.79004 23.9531 1.808 23.9048 1.87386 23.8867C1.87386 23.8746 1.87386 23.8625 1.87386 23.8565C1.90379 23.8746 1.96366 23.8504 2.00557 23.8565L2.02353 23.8082C1.95767 23.7418 1.95767 23.8384 1.90379 23.7961C1.92175 23.7478 1.98761 23.7961 2.01754 23.7719C2.01754 23.8202 2.04748 23.8444 2.06544 23.8625C2.11932 23.8444 2.13129 23.8806 2.16721 23.8927C2.19714 23.8625 2.1253 23.8806 2.17918 23.8504C2.263 23.8323 2.17918 24.0497 2.25701 23.9229V23.8806C2.25701 23.8806 2.32885 23.8987 2.32885 23.8565C2.31688 23.9229 2.39471 23.8565 2.3528 23.9048V23.8927C2.3528 23.8927 2.33484 23.9108 2.32885 23.9229C2.34083 23.9954 2.40069 23.9591 2.43662 23.9833C2.43662 23.9833 2.41866 23.9833 2.41267 23.9954C2.46655 24.0135 2.43662 23.9772 2.4905 23.9531C2.49648 23.9289 2.47852 24.0074 2.52043 23.9893C2.55635 23.9652 2.52043 23.941 2.52043 23.9048C2.5324 23.9048 2.54438 23.9048 2.56234 23.9048V23.8444C2.56234 23.8444 2.59826 23.8625 2.62221 23.8444C2.5803 23.8746 2.57431 23.9289 2.55036 23.9954C2.5324 23.9712 2.51444 23.9954 2.51444 24.0195C2.58628 24.0557 2.61023 23.9229 2.65214 23.9833C2.65214 23.9471 2.65214 23.935 2.62819 23.9108C2.64017 23.9108 2.65214 23.8927 2.66411 23.8746C2.72398 23.8746 2.77187 23.9229 2.8078 23.8746C2.8078 23.8806 2.8078 23.8927 2.8078 23.8927C2.86766 23.9048 2.84372 23.8927 2.8976 23.8625L2.86766 23.8987C2.88562 23.941 2.91556 23.8867 2.9395 23.8927C2.95746 23.8565 2.92154 23.8504 2.91556 23.8323C2.93352 23.8384 2.95148 23.7599 2.98141 23.8142C2.96345 23.8082 2.94549 23.8082 2.94549 23.8263C2.99937 23.8263 3.01135 23.8384 3.04727 23.8263L3.01733 23.8625C3.06523 23.8867 3.05924 23.8323 3.10115 23.8323C3.10115 23.8504 3.09516 23.8625 3.13108 23.8686V23.8323C3.18496 23.8504 3.14305 23.8504 3.17898 23.8987C3.22687 23.8987 3.25082 23.8323 3.26878 23.8082C3.3047 23.8565 3.36456 23.8323 3.41246 23.8686C3.43641 23.8686 3.45437 23.8263 3.4843 23.8504C3.4843 23.8021 3.52621 23.8323 3.53219 23.7659C3.49029 23.7176 3.4843 23.8384 3.47233 23.7659C3.47233 23.7538 3.51423 23.7599 3.53818 23.7357L3.52621 23.7478C3.69982 23.7901 3.78364 23.5848 3.99916 23.7116C3.99916 23.7418 3.95726 23.7176 3.96324 23.7478C4.0291 23.7901 4.02311 23.7176 4.08896 23.7478C4.19074 23.7901 4.28653 23.8444 4.37034 23.9048C4.22666 23.8686 4.40028 23.9772 4.38232 24.0074L4.4362 23.9893C4.46014 24.0497 4.39429 23.9833 4.40626 24.0195L4.48409 24.0557L4.44218 24.1161C4.52001 24.1705 4.57988 24.2369 4.66369 24.255C4.74751 24.3818 4.83731 24.5327 4.90316 24.7018C4.9331 24.7863 4.95705 24.8709 4.97501 24.9614C4.98698 25.0339 4.99297 25.1064 4.99895 25.1667C5.01093 25.2332 4.91514 25.2271 4.96902 25.2815C4.96902 25.2815 4.94507 25.2815 4.93909 25.2815C4.93909 25.3418 4.93909 25.4203 4.90915 25.4747C4.92711 25.4988 4.94507 25.4626 4.95705 25.4626C4.94507 25.4807 4.90915 25.4988 4.92112 25.5351C4.96303 25.5109 4.96902 25.5894 4.96902 25.6196C4.95106 25.5954 4.95705 25.5532 4.91514 25.5592L4.92112 25.517ZM0.413087 26.8151V26.797H0.401114L0.413087 26.8151ZM1.63439 23.8142H1.65834C1.65834 23.8142 1.65834 23.8021 1.67031 23.7901L1.63439 23.8142ZM3.10713 23.7961C3.10713 23.7961 3.10713 23.778 3.10115 23.7659C3.08319 23.778 3.10115 23.7901 3.10713 23.7961ZM0.269405 24.6233C0.269405 24.5871 0.269405 24.6052 0.269405 24.6233V24.6233ZM0.0658545 26.0302C0.0658545 26.0302 0.0658545 26.0181 0.0598677 26.0181V26.0302C0.0598677 26.0302 0.0598677 26.0302 0.0658545 26.0302ZM2.27497 17.7882L2.28096 17.8003V17.7822C2.28096 17.7822 2.28096 17.7822 2.27497 17.7882ZM3.04128 6.25546C3.04128 6.25546 3.02931 6.24942 3.02332 6.24338L3.04128 6.25546ZM2.8497 1.45518C2.8497 1.45518 2.81977 1.45518 2.8078 1.46725C2.81977 1.46122 2.83773 1.45518 2.8497 1.45518ZM1.96965 17.8305C1.99359 17.8788 1.87985 17.8969 1.9457 17.909C1.98761 17.8486 2.10734 17.9271 2.18517 17.8667L2.20313 17.909C2.24504 17.915 2.15524 17.8546 2.23307 17.8667L2.11333 17.8546C2.13129 17.8244 2.15524 17.8063 2.19714 17.7942C2.14925 17.764 1.99359 17.7459 2.05945 17.6735V17.6916C2.05945 17.6312 2.14326 17.6554 2.16122 17.6433V17.6554L2.22109 17.6071C2.17918 17.6433 2.27497 17.7037 2.26899 17.6735C2.29892 17.6071 2.23905 17.6916 2.22708 17.6373C2.22109 17.6071 2.28096 17.6131 2.32287 17.6131V17.5527C2.37076 17.5527 2.31688 17.5889 2.37076 17.5648L2.31089 17.4923C2.44859 17.4803 2.24504 17.4138 2.37675 17.3776C2.40668 17.432 2.42464 17.3776 2.46655 17.3776V17.2508C2.46655 17.2508 2.50247 17.287 2.49648 17.2629C2.5324 17.2387 2.46056 17.2206 2.46655 17.2085C2.50247 17.1965 2.46655 17.1119 2.55635 17.118C2.61622 17.0334 2.4426 17.0817 2.4905 16.9972C2.54438 16.9851 2.50247 17.0636 2.56234 17.0274L2.54438 16.9429C2.54438 16.9429 2.63418 16.961 2.62221 16.9912C2.69405 16.7617 2.9874 16.641 2.91556 16.4296C2.98141 16.3994 2.95746 16.4538 3.00536 16.4719C2.91556 16.3209 3.14904 16.2606 3.14305 16.1338H3.08917C3.2568 15.9526 3.15503 15.7353 3.22687 15.536L3.19095 15.5601C3.13707 15.53 3.13108 15.4877 3.10713 15.4515C3.13707 15.4515 3.22088 15.4756 3.20292 15.4152C3.18496 15.4273 3.16101 15.4515 3.13707 15.4454C3.28075 15.2703 3.24483 14.902 3.31068 14.6182C3.26878 14.2318 3.37654 13.8151 3.34062 13.4347C3.34062 13.4951 3.20891 13.4649 3.23884 13.4227C3.46634 13.3019 3.20292 13.2174 3.35858 13.0966C3.28674 12.8732 3.4843 12.68 3.31068 12.4747H3.37654C3.40647 12.4385 3.35858 12.4324 3.35259 12.4022H3.37055C3.3945 12.3298 3.32864 12.2332 3.35858 12.1909H3.28674C3.28674 12.1426 3.34062 12.1667 3.29871 12.1184H3.33463L3.26279 12.0641C3.38851 12.0641 3.27476 11.9373 3.32864 11.9011C3.3047 11.8407 3.25082 11.732 3.27476 11.6414C3.34062 11.6233 3.34062 11.5146 3.37055 11.4482C3.35259 11.3154 3.33463 11.1222 3.35858 10.9471H3.27476V10.9048C3.29272 10.9048 3.3047 10.9048 3.31068 10.9048C3.40647 10.8686 3.28075 10.8021 3.34062 10.7659C3.26878 10.7901 3.32864 10.7961 3.32864 10.8203C3.28674 10.8565 3.20891 10.8203 3.25082 10.7719H3.26878L3.22687 10.7418C3.29272 10.7418 3.32266 10.7055 3.38252 10.7055C3.37055 10.5546 3.2568 10.458 3.28674 10.301C3.35858 10.3191 3.26878 10.1923 3.3945 10.2225C3.3466 10.1319 3.29272 10.2346 3.20292 10.1983C3.20292 10.1742 3.17299 10.144 3.2149 10.144C3.24483 10.1561 3.29272 10.1259 3.3047 10.144L3.29272 10.0836C3.29272 10.0836 3.31667 10.0896 3.32864 10.0957C3.2568 9.96888 3.41246 9.87227 3.33463 9.76359C3.28674 9.75755 3.32266 9.80585 3.27476 9.79981C3.18496 9.68509 3.35858 9.70321 3.29272 9.59452L3.35259 9.61867C3.31068 9.58244 3.2568 9.57037 3.3047 9.51602C3.37654 9.50395 3.36456 9.56433 3.40049 9.58848C3.40049 9.55225 3.38253 9.45564 3.31667 9.4798C3.29272 9.43149 3.35858 9.41942 3.37654 9.39526C3.35858 9.39526 3.32864 9.43753 3.29272 9.41338C3.33463 9.353 3.33463 9.25639 3.34062 9.17789C3.35858 9.17789 3.38851 9.17789 3.3945 9.17789C3.29871 9.11751 3.46035 9.12355 3.44239 9.03902C3.41246 8.81561 3.31667 8.51974 3.3466 8.29633C3.25082 8.24803 3.24483 8.17557 3.22687 8.10311H3.35259L3.31068 8.03669C3.3466 8.01254 3.33463 8.085 3.38252 8.03669L3.3047 8.01254C3.35259 8.01254 3.33463 7.86159 3.42443 7.9582V7.72875C3.42443 7.68045 3.31667 7.69856 3.35259 7.64422C3.38851 7.63214 3.37654 7.66233 3.42443 7.66233C3.52022 7.49327 3.17299 7.46911 3.23286 7.30608L3.25082 7.31816C3.2149 7.29401 3.22088 7.23967 3.20292 7.23967C3.07121 7.25778 3.27476 7.26986 3.19694 7.31816C3.08917 7.31816 3.13707 7.25778 3.05325 7.26382C3.09516 7.22759 3.02931 7.20344 3.02332 7.17325C3.08917 7.1189 3.04128 7.04041 3.13108 6.99814C3.09516 6.97399 2.9874 6.9438 2.9874 6.88342C3.07121 6.84115 3.07121 6.89549 3.10115 6.83511L3.03529 6.82304C3.04727 6.77473 3.06523 6.78681 3.09516 6.78681C3.09516 6.7385 3.00536 6.74454 3.04727 6.68416L3.10713 6.72039C3.08319 6.67209 3.09516 6.65397 3.10115 6.59359C3.13707 6.59359 3.13707 6.61774 3.12509 6.6419C3.22088 6.60567 3.08319 6.58151 3.09516 6.5634C3.06523 6.5634 3.05325 6.6117 2.99338 6.59359C3.00536 6.5634 2.90957 6.52717 2.98141 6.50302L3.04128 6.53925C2.99339 6.47283 2.96345 6.50302 2.9874 6.43056C2.9874 6.43056 3.00536 6.43056 3.02332 6.43056C2.9395 6.38226 3.01733 6.32188 3.02332 6.24942C2.99937 6.23131 2.96345 6.21319 2.96944 6.20112C2.93352 6.24338 2.91556 6.23131 2.85569 6.23734C2.95746 6.183 2.73595 6.15281 2.79582 6.06828C2.83174 6.06828 2.87365 6.09243 2.83773 6.11658C2.94549 6.14677 3.03529 6.15281 3.08319 6.20112C3.05924 6.17092 3.04128 6.12866 3.08319 6.1347L2.98141 6.12262C2.98141 6.12262 2.98141 6.08639 2.98141 6.07432C2.91556 6.06828 2.87964 6.11658 2.83773 6.07432C2.8078 6.01997 2.9395 6.04412 2.8976 6.03809C2.85569 5.96563 2.78983 6.0079 2.82576 5.94148C2.83174 5.94752 2.8497 5.95959 2.84372 5.96563C2.88562 5.91732 2.82576 5.84487 2.94549 5.82675C2.97542 5.83279 3.00536 5.83279 2.99937 5.85694H2.98141C3.07121 5.91129 2.95746 5.80864 3.06523 5.82675C2.99937 5.82675 3.01733 5.76033 3.02931 5.73014L2.95746 5.74222C2.73595 5.63957 3.10115 5.74222 3.0772 5.64561C3.02931 5.57919 3.05924 5.66976 3.00536 5.6275C3.01733 5.58523 3.08319 5.56712 3.05325 5.5007C3.08319 5.48258 3.11911 5.44635 3.20292 5.44032C3.167 5.39805 3.23884 5.31955 3.16101 5.2954C3.08917 5.36182 3.24483 5.36182 3.13707 5.44032L3.05924 5.41616C3.05924 5.36182 3.02332 5.28936 3.05325 5.25314C3.03529 5.25917 3.01733 5.26521 2.99937 5.25917C2.96944 5.18068 2.89161 5.15653 2.91556 5.08407C2.9874 5.07199 2.97542 5.1203 2.98141 5.15049C3.04128 5.10218 2.98141 5.10218 3.01135 5.02369C3.0772 5.02369 3.01135 5.07199 3.07121 5.08407L3.05325 4.99954C3.05325 4.99954 3.05924 4.99954 3.06523 4.99954C2.95746 4.98746 3.0772 4.93312 3.04128 4.88481C3.04128 4.76405 2.8976 4.74594 2.81378 4.67952C2.84372 4.6614 2.86766 4.65536 2.8976 4.6614C2.8497 4.69159 2.88562 4.68555 2.91556 4.69763C2.90358 4.65536 3.02332 4.60706 3.06523 4.63121C3.03529 4.56479 3.01135 4.65536 2.97542 4.6131V4.52253C2.92753 4.5346 2.91556 4.56479 2.87365 4.52253C2.85569 4.4863 2.87365 4.46215 2.87365 4.41384C2.8976 4.41988 2.95746 4.39573 2.95148 4.43799C2.96944 4.41384 2.97542 4.37761 2.92154 4.3595C2.87365 4.41384 2.87365 4.26893 2.78983 4.31119L2.83773 4.25685C2.83773 4.25685 2.87365 4.26893 2.86168 4.28704C2.94549 4.26893 2.83773 4.23874 2.83174 4.22062C2.8497 4.20251 2.85569 4.14817 2.88562 4.14817C2.86168 4.13005 2.88562 4.08778 2.92154 4.08175C2.90358 4.05759 2.86766 4.08175 2.83773 4.06967V3.9791C2.89161 3.9791 3.01733 3.96702 3.03529 3.9791C2.99339 3.94287 2.8976 3.96702 2.90358 3.91872C2.99339 3.94891 2.97542 3.8523 3.0772 3.89457C3.14305 3.86438 3.14305 3.77984 3.11911 3.73758C3.04727 3.70739 3.0772 3.78588 3.00536 3.78588C2.98141 3.65908 2.77786 3.647 2.81378 3.55643L2.79582 3.58059C2.75391 3.5202 2.76589 3.52624 2.70003 3.49605C2.78983 3.51417 2.94549 3.42963 2.92154 3.33302C2.87365 3.32699 2.83773 3.38737 2.76589 3.36925L2.75391 3.30283C2.75391 3.30283 2.77786 3.30283 2.78983 3.31491C2.7599 3.25453 2.90957 3.20622 2.80181 3.18811L2.93352 3.12773L2.87964 3.15188C2.83773 3.14584 2.81977 3.07942 2.80181 3.06735C2.75391 3.00093 2.78983 2.97678 2.8497 2.94055C2.81378 2.95262 2.72997 2.98282 2.71201 2.92847C2.85569 2.92847 2.76589 2.81979 2.84372 2.81979C2.84372 2.79563 2.88562 2.75941 2.82576 2.75941H2.91556C2.78983 2.75941 2.79582 2.68091 2.77187 2.62053C2.94549 2.63261 2.7599 2.55411 2.91556 2.52996C2.79582 2.51788 2.86766 2.42731 2.77187 2.41523C2.77187 2.36693 2.87365 2.37297 2.91556 2.36089L2.87365 2.33674C2.92753 2.31259 2.9395 2.22805 2.97542 2.17975L2.87365 2.13144L2.92154 2.11333C2.92154 2.11333 2.87964 2.06503 2.84372 2.08918V2.06503C2.73595 2.06503 2.81977 2.0288 2.77187 1.98049C2.78983 1.96842 2.81977 1.97445 2.83174 1.98049C2.83174 1.95634 2.89161 1.96842 2.92753 1.9503C2.8976 1.96842 2.72398 1.85973 2.67609 1.92615C2.62819 1.92615 2.59826 1.88992 2.61622 1.86577L2.71799 1.84765L2.61023 1.81746C2.59826 1.78124 2.65813 1.76312 2.6701 1.73293C2.67609 1.76312 2.86766 1.80539 2.86168 1.72085C2.87365 1.76312 2.93352 1.78727 2.95148 1.81143C2.95148 1.79331 2.96345 1.78727 3.01135 1.81143C2.98141 1.74501 2.95148 1.78727 2.93352 1.72689C3.02332 1.72689 3.05325 1.71482 3.08319 1.65444L3.01733 1.6967C3.01733 1.6967 2.99937 1.6967 2.99338 1.69066C2.98141 1.70878 2.96944 1.70878 2.93352 1.71482C2.93352 1.70274 2.81977 1.64236 2.87365 1.63028C2.72997 1.6967 2.76589 1.51556 2.67609 1.55783C2.65214 1.55179 2.64615 1.50348 2.68806 1.50348C2.73595 1.54575 2.77187 1.50348 2.8078 1.47933C2.78983 1.49141 2.77187 1.49745 2.74793 1.47933C2.74194 1.44914 2.79582 1.42499 2.82576 1.40687L2.84372 1.41895L2.88562 1.37065C2.83773 1.36461 2.8078 1.41895 2.78385 1.37065C2.80181 1.35857 2.78385 1.31026 2.81378 1.3163C2.87365 1.34046 2.95746 1.3163 2.97542 1.35857C2.96944 1.32838 2.95746 1.22573 2.87365 1.26196V1.22573C2.83773 1.24988 2.77187 1.3163 2.75391 1.23781H2.77187L2.70602 1.18347L2.75391 1.15931C2.75391 1.15931 2.71201 1.15327 2.71201 1.12912C2.74194 1.12912 2.74793 1.10497 2.78385 1.10497C2.78385 1.04459 2.73595 1.05063 2.70602 1.04459C2.70003 1.0144 2.71799 1.00232 2.77187 1.0144C2.78385 0.972132 2.77187 0.893637 2.81977 0.863446C2.77786 0.803065 2.80181 0.875522 2.74194 0.839294C2.90358 0.790989 2.80181 0.640037 2.78385 0.543428C2.64615 0.56758 2.76589 0.519275 2.64017 0.501161C2.68207 0.519275 2.74793 0.41059 2.78385 0.495123L2.77187 0.44078C2.8497 0.404552 2.83174 0.525313 2.93352 0.470971C2.93352 0.41059 2.77786 0.374361 2.82576 0.307942C2.92154 0.332095 2.79582 0.2536 2.90358 0.271714C2.9395 0.28379 2.92753 0.301904 2.93352 0.326057L2.95148 0.31398C2.98141 0.187181 2.83773 0.277752 2.76589 0.211333C2.75391 0.132838 2.84372 0.150952 2.89161 0.144914C2.90957 0.132838 2.89161 0.0966094 2.86766 0.072457C2.92753 0.120762 2.8078 0.163028 2.74194 0.138876C2.85569 0.102647 2.75391 0.0241523 2.70602 0C2.58628 0.108686 2.70602 0.0784951 2.57431 0.181143C2.61023 0.193219 2.71201 0.193219 2.6701 0.2536C2.62221 0.217371 2.61622 0.2536 2.59826 0.265676C2.65813 0.2536 2.62221 0.307942 2.64615 0.326057C2.59826 0.344171 2.51444 0.289828 2.4905 0.350209L2.62819 0.362285C2.62819 0.362285 2.52642 0.350209 2.56234 0.404552C2.4905 0.374361 2.45458 0.41059 2.43063 0.344171C2.31688 0.428704 2.4905 0.477009 2.54438 0.543428C2.53839 0.53739 2.52043 0.53739 2.50846 0.531352C2.54438 0.543428 2.54438 0.573618 2.55036 0.591733C2.52043 0.633999 2.4905 0.555504 2.44859 0.56758V0.640037C2.44859 0.640037 2.44859 0.640037 2.4426 0.640037C2.46056 0.658151 2.47254 0.676266 2.4426 0.682304C2.40069 0.658151 2.3528 0.652113 2.31688 0.640037L2.41267 0.712494C2.37076 0.706456 2.33484 0.772875 2.30491 0.718532L2.32287 0.827218L2.23307 0.839294C2.23307 0.839294 2.26899 0.863446 2.28096 0.839294C2.25701 0.875522 2.4426 1.00836 2.263 0.984208C2.34083 1.06874 2.31089 1.09893 2.3528 1.20762C2.26899 1.12912 2.24504 1.29819 2.20912 1.21366C2.16721 1.26196 2.26899 1.27404 2.28096 1.31026C2.23905 1.34649 2.14925 1.32838 2.11932 1.29215L2.16122 1.34046H2.14326L2.19714 1.38272C2.14925 1.42499 2.10734 1.3948 2.09537 1.43706L2.17918 1.44914L2.13129 1.47933C2.16721 1.46725 2.18517 1.49141 2.19116 1.52764H2.1732L2.19116 1.56386C2.14326 1.52764 2.1732 1.60009 2.11333 1.58198C2.11333 1.61821 2.11333 1.61821 2.1253 1.67859L2.17918 1.66651C2.22708 1.74501 2.09537 1.66651 2.08938 1.73293H2.15524C2.04748 1.8235 2.2151 1.88388 2.14925 1.9503C2.13728 1.91407 2.05945 1.92011 2.07741 1.92011C2.10136 1.98049 2.07741 2.0771 2.16122 2.13748C2.07142 2.16163 2.04149 2.16767 1.99958 2.22805C1.99958 2.27636 2.01155 2.2824 2.06544 2.29447C2.02952 2.33674 2.0834 2.42127 2.01754 2.42127C2.07142 2.43335 2.00557 2.4575 2.05346 2.48165H2.02353H2.08938C1.9457 2.56015 2.16721 2.61449 2.04748 2.69299L2.02952 2.68091L2.05346 2.71714C2.05346 2.71714 2.01155 2.7111 1.96965 2.70506L1.95767 2.85601L2.00557 2.82582C2.01155 2.85601 2.07142 2.88017 2.0355 2.9164C1.93971 2.85602 2.0355 2.9647 1.95767 2.97678L1.93373 2.94659C1.93373 2.97476 1.95767 2.98885 2.00557 2.98885C2.02951 3.04923 1.88583 3.03112 1.95169 3.08546V3.04923C1.99359 3.03716 2.04748 3.06735 2.04149 3.0915C2.02952 3.0915 2.00557 3.11565 1.99359 3.0915C2.01754 3.13981 1.98761 3.20622 2.01155 3.22434C1.99359 3.24849 1.9457 3.24245 1.92774 3.22434C1.98162 3.32095 1.91577 3.2666 1.96965 3.36925H1.93373L1.97563 3.39944L1.89781 3.44775L1.9457 3.42963C1.95169 3.45982 1.97563 3.48398 1.95767 3.5202L1.90379 3.50813C1.93373 3.5987 1.81399 3.61078 1.88583 3.70135C1.87386 3.70739 1.86189 3.69531 1.84991 3.68927C1.93373 3.76777 1.75412 3.74965 1.8559 3.82815C1.83794 3.82815 1.81399 3.82815 1.80202 3.82815L1.83794 3.86438H1.7661L1.87386 3.88853L1.80202 3.91268L1.83794 3.92476C1.70024 3.96098 1.80202 4.02137 1.70024 4.07571L1.79004 4.06363C1.98162 4.19647 1.68228 4.37157 1.77208 4.5346H1.70024L1.78406 4.60102C1.72419 4.63725 1.72419 4.57687 1.68228 4.58895C1.72419 4.6614 1.79004 4.61914 1.808 4.70367C1.76011 4.74594 1.75412 4.69159 1.73018 4.66744C1.7661 4.74594 1.808 4.86066 1.7661 4.92104C1.77807 4.92104 1.79004 4.92104 1.79603 4.92104C1.82596 4.97538 1.79603 5.0418 1.79603 5.10218C1.76011 5.10218 1.76011 5.08407 1.74814 5.07199C1.74814 5.09011 1.7182 5.1203 1.75412 5.13841L1.69426 5.11426C1.68228 5.15653 1.73616 5.2471 1.66432 5.25314C1.69426 5.25314 1.74814 5.25314 1.74215 5.28936C1.6284 5.31352 1.79004 5.39201 1.73018 5.45843C1.70623 5.45239 1.70024 5.40409 1.69426 5.41616C1.66432 5.44635 1.7182 5.47654 1.75412 5.5007H1.71222L1.77208 5.63353C1.65834 5.65769 1.79004 5.76637 1.70623 5.76033C1.70623 5.80864 1.75412 5.71807 1.7661 5.78449C1.7182 5.8026 1.79004 5.84487 1.7182 5.83883H1.71222V5.87506L1.64037 5.84487C1.65834 5.8811 1.72419 5.91129 1.77807 5.91733C1.73616 5.95355 1.77208 6.0079 1.70623 6.02601L1.68827 6.01393C1.7182 6.11658 1.49071 6.183 1.61044 6.26753C1.59847 6.27357 1.58051 6.26753 1.58649 6.2615V6.32791L1.52663 6.3098L1.61044 6.41849H1.57452C1.56255 6.4849 1.57452 6.59963 1.58649 6.68416L1.56853 6.67209C1.62241 6.76869 1.53261 6.76869 1.56853 6.84115C1.55656 6.84115 1.55656 6.84115 1.55057 6.83511V6.90153L1.51465 6.88946C1.59248 6.93776 1.41288 7.02833 1.47873 6.99814C1.51465 7.02229 1.55656 7.0706 1.59847 7.08268C1.59847 7.15513 1.55057 7.10079 1.52064 7.14306C1.52064 7.19136 1.58051 7.20344 1.54459 7.26986H1.50867C1.51465 7.30005 1.5386 7.31816 1.54459 7.36647L1.52663 7.35439C1.60445 7.42685 1.41886 7.44496 1.58051 7.50534C1.55057 7.53553 1.57452 7.59591 1.50268 7.58988C1.55057 7.68045 1.56853 7.7529 1.59847 7.84347C1.47873 7.85555 1.60445 7.86159 1.5386 7.91593H1.60445C1.61044 8.04273 1.45479 8.18764 1.47873 8.33256H1.41288L1.48472 8.36275C1.45479 8.5137 1.43084 8.71296 1.43084 8.83372C1.46676 8.87599 1.5386 8.93637 1.52064 8.99675H1.51465C1.55057 9.0994 1.58051 9.21412 1.54459 9.33488C1.51465 9.32884 1.49669 9.33488 1.47873 9.32281C1.55057 9.353 1.47873 9.39526 1.47873 9.41942L1.52663 9.38922C1.58649 9.42545 1.52663 9.47376 1.48472 9.49187L1.55656 9.54622C1.55656 9.54622 1.5386 9.55829 1.53261 9.55829L1.56853 9.57037L1.48472 9.60056C1.48472 9.60056 1.52064 9.68509 1.60445 9.70924C1.57452 9.70924 1.55656 9.76359 1.5386 9.72736L1.51465 9.92661L1.54459 9.89642C1.61044 9.89642 1.64636 9.95077 1.62241 9.98096C1.56853 9.93869 1.53261 9.98096 1.48472 9.99303C1.52064 10.0172 1.5386 9.96888 1.57452 9.98096C1.61643 10.0172 1.64038 10.0836 1.61044 10.1017L1.58649 10.0836C1.61044 10.1319 1.49669 10.15 1.50268 10.1983C1.55656 10.2406 1.50268 10.2708 1.61643 10.2587C1.64037 10.3191 1.54459 10.2829 1.53261 10.301C1.58649 10.3312 1.55057 10.4097 1.49669 10.4217C1.65834 10.4519 1.43682 10.5787 1.57452 10.5908L1.49669 10.6391C1.53261 10.6391 1.61643 10.6512 1.6284 10.6874C1.58649 10.7236 1.52663 10.7176 1.49071 10.7236L1.6284 10.7478C1.48472 10.9591 1.58051 11.2369 1.46077 11.4724C1.49071 11.575 1.55057 11.7078 1.53261 11.8286L1.51465 11.8165L1.47873 11.9373L1.5386 11.8528C1.5386 11.8528 1.58051 11.9011 1.58051 11.9252C1.52663 12.0581 1.45478 12.2332 1.52663 12.3962C1.68228 12.4988 1.38893 12.4686 1.50268 12.5653C1.49071 12.5592 1.46676 12.5532 1.4488 12.5471C1.50268 12.6558 1.52663 12.7162 1.61643 12.8249C1.46077 12.8128 1.61643 12.8974 1.5386 12.8853L1.59847 12.8974C1.56255 12.9215 1.54459 12.9758 1.50268 12.9698L1.58051 13.0181H1.51465C1.51465 13.0845 1.56255 13.2234 1.43084 13.2536C1.52663 13.4106 1.49669 13.6582 1.47275 13.8574C1.52663 13.8876 1.53261 13.9419 1.53261 13.9902L1.45479 14.0386C1.47873 14.0869 1.57452 14.1352 1.52663 14.1774C1.52064 14.1774 1.50867 14.1774 1.50867 14.1774C1.52663 14.2257 1.48472 14.268 1.55656 14.3103C1.55656 14.3586 1.51465 14.4129 1.44281 14.3948C1.56853 14.3948 1.42485 14.5035 1.42485 14.5035C1.42485 14.5035 1.11354 17.1301 1.808 17.7701C1.86787 17.7942 1.90978 17.8486 1.98761 17.8305H1.96965ZM2.51444 34.1876L2.50846 34.1756V34.1937C2.50846 34.1937 2.50846 34.1937 2.51444 34.1876ZM1.74814 45.7204C1.74814 45.7204 1.76011 45.7264 1.7661 45.7325L1.74814 45.7204ZM2.81977 34.1454C2.79582 34.0971 2.90957 34.079 2.84372 34.0669C2.80181 34.1273 2.68207 34.0488 2.60425 34.1091L2.58628 34.0729C2.54438 34.0669 2.63418 34.1273 2.55635 34.1152L2.67609 34.1273C2.65813 34.1575 2.63418 34.1756 2.59227 34.1876C2.64017 34.2178 2.79582 34.236 2.72997 34.3084V34.2903C2.72997 34.3507 2.64615 34.3265 2.62819 34.3386V34.3265L2.56832 34.3748C2.61023 34.3386 2.51444 34.2782 2.52043 34.3084C2.4905 34.3748 2.55036 34.2903 2.56234 34.3446C2.56832 34.3748 2.50846 34.3688 2.46655 34.3688V34.4292C2.41866 34.4292 2.47254 34.3929 2.41866 34.4171L2.47852 34.4895C2.34083 34.5016 2.54438 34.568 2.41267 34.6043C2.38273 34.5499 2.36477 34.6043 2.32287 34.6043V34.7311C2.32287 34.7311 2.28695 34.6948 2.29293 34.719C2.25701 34.7431 2.32885 34.7613 2.32287 34.7733C2.28695 34.7854 2.32287 34.8699 2.23307 34.8639C2.1732 34.9484 2.34681 34.9001 2.29892 34.9847C2.24504 34.9967 2.28695 34.9183 2.22708 34.9545L2.24504 35.039C2.24504 35.039 2.15524 35.0209 2.16721 34.9907C2.09537 35.2202 1.80202 35.3409 1.87386 35.5522C1.808 35.5824 1.83195 35.5281 1.78406 35.51C1.87386 35.6609 1.64037 35.7213 1.64636 35.8481H1.70024C1.53261 36.0293 1.63439 36.2466 1.56255 36.4459L1.59847 36.4217C1.65235 36.4519 1.65834 36.4942 1.68228 36.5304C1.65235 36.5304 1.56853 36.5063 1.58649 36.5667C1.60445 36.5546 1.6284 36.5304 1.65235 36.5365C1.50867 36.7116 1.54459 37.0799 1.47873 37.3637C1.52064 37.7501 1.41288 38.1667 1.4488 38.5471C1.4488 38.4868 1.58051 38.5109 1.55057 38.5592C1.32308 38.68 1.58649 38.7645 1.43084 38.8853C1.50268 39.1087 1.30512 39.3019 1.47873 39.5072H1.41288C1.38294 39.5434 1.43084 39.5495 1.43682 39.5797H1.41886C1.39492 39.6521 1.46077 39.7487 1.43084 39.791H1.50268C1.50867 39.8393 1.4488 39.8151 1.49071 39.8634H1.45479L1.52064 39.9178C1.39492 39.9178 1.50867 40.0446 1.45479 40.0808C1.47873 40.1412 1.53261 40.2499 1.50867 40.3405C1.44281 40.3586 1.44281 40.4673 1.41288 40.5337C1.43084 40.6665 1.4488 40.8597 1.42485 41.0348H1.50867V41.0771C1.49071 41.0771 1.47873 41.0771 1.47275 41.0771C1.37696 41.1133 1.50268 41.1798 1.44281 41.216C1.51465 41.1918 1.45479 41.1858 1.45479 41.1616C1.49669 41.1254 1.57452 41.1616 1.53261 41.2099H1.51465L1.55656 41.2401C1.49071 41.2401 1.46077 41.2764 1.4009 41.2764C1.41886 41.4273 1.52663 41.5239 1.49669 41.6809C1.42485 41.6628 1.51465 41.7896 1.38893 41.7594C1.43682 41.85 1.49071 41.7413 1.58051 41.7836C1.58051 41.8077 1.61044 41.8379 1.56853 41.8379C1.5386 41.8258 1.49071 41.856 1.47873 41.8379L1.49071 41.8983C1.49071 41.8983 1.46676 41.8922 1.45479 41.8862C1.52663 42.013 1.37097 42.1096 1.4488 42.2183C1.49071 42.2243 1.46077 42.176 1.50867 42.1821C1.59847 42.2968 1.42485 42.2847 1.49071 42.3874L1.43084 42.3632C1.47275 42.3994 1.52663 42.4115 1.47873 42.4659C1.40689 42.4779 1.41886 42.4176 1.38294 42.3934C1.38294 42.4296 1.4009 42.5262 1.46676 42.5021C1.49071 42.5504 1.42485 42.5625 1.40689 42.5927C1.42485 42.5927 1.45479 42.5504 1.49071 42.5745C1.4488 42.6349 1.4488 42.7315 1.44281 42.81C1.42485 42.81 1.39492 42.81 1.38893 42.81C1.48472 42.8704 1.32308 42.8644 1.34104 42.9489C1.37097 43.1723 1.46676 43.4682 1.43682 43.6916C1.53261 43.7399 1.5386 43.8124 1.55656 43.8848H1.43084L1.47275 43.9512C1.43682 43.9754 1.4488 43.9029 1.4009 43.9512L1.47873 43.9754C1.43084 43.9754 1.4488 44.1263 1.35301 44.0297V44.2592C1.35301 44.3075 1.46077 44.2894 1.43084 44.3437C1.39492 44.3558 1.40689 44.3256 1.359 44.3256C1.26321 44.4947 1.61044 44.5188 1.55057 44.6818L1.53261 44.6698C1.56853 44.6939 1.56255 44.7483 1.58051 44.7483C1.71222 44.7301 1.50867 44.7181 1.58649 44.6698C1.69426 44.6698 1.64636 44.7301 1.73018 44.7241C1.68827 44.7603 1.75412 44.7845 1.76011 44.8147C1.69426 44.869 1.74215 44.9475 1.65235 44.9898C1.68827 45.0139 1.79603 45.0441 1.79603 45.1045C1.71222 45.1468 1.71222 45.0924 1.68228 45.1528H1.74814C1.73616 45.2072 1.7182 45.2011 1.68827 45.2011C1.68827 45.2494 1.77208 45.2434 1.73616 45.3038L1.6763 45.2675C1.70024 45.3158 1.68827 45.334 1.68228 45.3943C1.64636 45.3943 1.64636 45.3702 1.65834 45.346C1.56255 45.3823 1.70024 45.4064 1.68827 45.4245C1.7182 45.4245 1.73018 45.3762 1.79004 45.3943C1.77807 45.4245 1.87386 45.4608 1.80202 45.4849L1.74215 45.4487C1.79004 45.5151 1.81998 45.4849 1.79603 45.5574C1.79603 45.5574 1.77807 45.5574 1.76011 45.5574C1.84393 45.6057 1.7661 45.666 1.76011 45.7385C1.78406 45.7566 1.81998 45.7747 1.81399 45.7868C1.84991 45.7445 1.86787 45.7566 1.92774 45.7566C1.82596 45.811 2.04748 45.8412 1.98761 45.9257C1.95169 45.9257 1.90978 45.9015 1.9457 45.8774C1.83794 45.8472 1.74814 45.8412 1.70024 45.7929C1.72419 45.823 1.74215 45.8653 1.70024 45.8593L1.80202 45.8713C1.80202 45.8713 1.80202 45.9076 1.80202 45.9196C1.86787 45.9257 1.90379 45.8774 1.9457 45.9257C1.97563 45.98 1.84393 45.9559 1.88583 45.9619C1.92774 46.0344 1.99359 45.9921 1.95767 46.0585C1.95169 46.0525 1.93373 46.0404 1.93971 46.0344C1.89781 46.0827 1.95767 46.1551 1.83794 46.1732C1.81399 46.1672 1.77807 46.1672 1.78406 46.1431H1.80202C1.71222 46.0887 1.82596 46.1914 1.7182 46.1732C1.78406 46.1732 1.7661 46.2397 1.75412 46.2699L1.82596 46.2578C2.04748 46.3604 1.68228 46.2578 1.70623 46.3544C1.75412 46.4208 1.72419 46.3302 1.77807 46.3725C1.7661 46.4148 1.70024 46.4329 1.73018 46.4993C1.70024 46.5174 1.66432 46.5536 1.58051 46.5597C1.61643 46.602 1.54459 46.6804 1.62241 46.7046C1.69426 46.6382 1.5386 46.6382 1.64636 46.5597L1.72419 46.5838C1.72419 46.6382 1.76011 46.7106 1.73018 46.7469C1.74814 46.7408 1.7661 46.7348 1.78406 46.7408C1.81399 46.8193 1.89182 46.8435 1.86787 46.9159C1.79603 46.928 1.808 46.8797 1.80202 46.8495C1.74215 46.8978 1.80202 46.8978 1.77208 46.9763C1.70623 46.9763 1.77208 46.928 1.71222 46.9159L1.73018 47.0005C1.73018 47.0005 1.72419 47.0005 1.7182 47.0005C1.82596 47.0125 1.70623 47.0669 1.74215 47.1152C1.74215 47.236 1.88583 47.2541 1.96965 47.3205C1.93971 47.3386 1.91577 47.3446 1.88583 47.3386C1.93373 47.3084 1.89781 47.3144 1.86787 47.3024C1.87985 47.3446 1.76011 47.3929 1.7182 47.3688C1.74814 47.4352 1.77208 47.3446 1.808 47.3869V47.4775C1.8559 47.4654 1.86787 47.4352 1.90978 47.4775C1.92774 47.5137 1.90978 47.5379 1.90978 47.5862C1.87985 47.5801 1.82596 47.6043 1.83195 47.562C1.81399 47.5862 1.808 47.6224 1.86189 47.6405C1.90978 47.5862 1.90978 47.7311 1.99359 47.6888L1.9457 47.7431C1.9457 47.7431 1.90978 47.7311 1.92175 47.713C1.83794 47.7311 1.9457 47.7613 1.95169 47.7794C1.93373 47.7975 1.92774 47.8518 1.89781 47.8518C1.92175 47.8699 1.89781 47.9122 1.86189 47.9183C1.87985 47.9424 1.91577 47.9183 1.9457 47.9303V48.0209C1.89182 48.0209 1.7661 48.033 1.74814 48.0209C1.79004 48.0571 1.88583 48.033 1.87985 48.0813C1.79004 48.0511 1.808 48.1477 1.70623 48.1054C1.64037 48.1356 1.64037 48.2202 1.66432 48.2624C1.73616 48.2926 1.70623 48.2141 1.77807 48.2141C1.80202 48.3409 2.00557 48.353 1.96965 48.4436L1.98761 48.4194C2.02952 48.4798 2.01754 48.4738 2.0834 48.5039C1.99359 48.4858 1.83794 48.5704 1.86189 48.667C1.90978 48.673 1.95169 48.6126 2.01754 48.6307L2.02952 48.6972C2.02952 48.6972 2.00557 48.6972 1.99359 48.6851C2.02353 48.7455 1.87386 48.7938 1.98162 48.8119L1.84991 48.8723L1.90379 48.8481C1.9457 48.8542 1.96366 48.9206 1.98162 48.9327C2.02952 48.9991 1.99359 49.0232 1.93373 49.0595C1.96965 49.0474 2.05346 49.0172 2.07142 49.0715C1.92774 49.0715 2.01754 49.1802 1.93971 49.1802C1.93971 49.2044 1.89781 49.2406 1.95767 49.2406H1.86787C1.99359 49.2406 1.98761 49.3191 2.01155 49.3795C1.83794 49.3674 2.02353 49.4459 1.86787 49.47C1.98761 49.4821 1.91577 49.5727 2.01155 49.5848C2.01155 49.6331 1.90978 49.627 1.86787 49.6391L1.90978 49.6633C1.8559 49.6874 1.84393 49.7719 1.808 49.8203L1.90978 49.8686L1.86189 49.8867C1.86189 49.8867 1.90379 49.935 1.93971 49.9108V49.935C2.04748 49.935 1.96366 49.9712 2.01155 50.0195C1.99359 50.0316 1.96366 50.0255 1.95169 50.0195C1.95169 50.0437 1.89182 50.0316 1.8559 50.0497C1.88583 50.0316 2.05945 50.1403 2.10734 50.0739C2.15524 50.0739 2.18517 50.1101 2.16721 50.1342L2.06544 50.1523L2.1732 50.1825C2.19116 50.2188 2.1253 50.2369 2.11333 50.2671C2.10734 50.2369 1.91577 50.1946 1.92175 50.2791C1.90978 50.2369 1.84991 50.2127 1.83195 50.1886C1.83195 50.2067 1.81998 50.2127 1.77208 50.1886C1.80202 50.255 1.83195 50.2127 1.84392 50.2731C1.75412 50.2731 1.72419 50.2852 1.69426 50.3456L1.76011 50.3033C1.76011 50.3033 1.77807 50.3033 1.78406 50.3093C1.79603 50.2912 1.808 50.2912 1.84392 50.2852C1.84392 50.2973 1.95767 50.3576 1.90379 50.3697C2.04748 50.3033 2.01155 50.4844 2.10136 50.4422C2.1253 50.4482 2.13129 50.4965 2.08938 50.4965C2.04149 50.4543 2.00557 50.4965 1.96965 50.5207C1.98761 50.5086 2.01155 50.5026 2.02952 50.5207C2.0355 50.5509 1.98162 50.575 1.95169 50.5931L1.93373 50.5811L1.89182 50.6294C1.93971 50.6354 1.96965 50.5811 1.99359 50.6294C1.97563 50.6414 1.99359 50.6897 1.96366 50.6837C1.90379 50.6595 1.81998 50.6837 1.80202 50.6414C1.808 50.6716 1.81998 50.7743 1.90379 50.738V50.7743C1.93971 50.7501 2.00557 50.6837 2.02353 50.7622H2.00557L2.07142 50.8165L2.02353 50.8407C2.02353 50.8407 2.06544 50.8467 2.06544 50.8709C2.0355 50.8709 2.02952 50.895 1.99359 50.895C1.99359 50.9554 2.04149 50.9494 2.07142 50.9554C2.07741 50.9856 2.05945 50.9977 2.00557 50.9856C1.99359 51.0279 2.00557 51.1064 1.95767 51.1366C1.99958 51.1969 1.97563 51.1245 2.04149 51.1607C1.87985 51.209 1.98162 51.36 1.99958 51.4566C2.13728 51.4324 2.01754 51.4807 2.14326 51.4988C2.10136 51.4807 2.0355 51.5894 1.99359 51.5049L2.00557 51.5592C1.92774 51.5954 1.95169 51.4747 1.84392 51.529C1.84392 51.5894 1.99958 51.6256 1.95169 51.6921C1.8559 51.6679 1.98162 51.7464 1.87386 51.7283C1.83794 51.7162 1.84991 51.6981 1.84392 51.6739L1.82596 51.686C1.79603 51.8128 1.93971 51.7223 2.01155 51.7887C2.02353 51.8672 1.93373 51.8491 1.88583 51.8551C1.86787 51.8672 1.88583 51.9034 1.90978 51.9275C1.84991 51.8792 1.96965 51.837 2.0355 51.8611C1.92175 51.8974 2.02353 51.9758 2.07142 52C2.19116 51.8913 2.07142 51.9215 2.20313 51.8189C2.16721 51.8068 2.06544 51.8068 2.10734 51.7464C2.15524 51.7826 2.16122 51.7464 2.17918 51.7343C2.11932 51.7464 2.15524 51.6921 2.13129 51.6739C2.17918 51.6558 2.263 51.7102 2.28695 51.6498L2.14925 51.6377C2.14925 51.6377 2.25103 51.6498 2.2151 51.5955C2.28695 51.6256 2.32287 51.5894 2.34681 51.6558C2.46056 51.5713 2.28695 51.523 2.23307 51.4566C2.23905 51.4626 2.25701 51.4626 2.26899 51.4687C2.23307 51.4566 2.23307 51.4264 2.22708 51.4083C2.25701 51.366 2.28695 51.4445 2.32885 51.4324V51.36C2.32885 51.36 2.32885 51.36 2.33484 51.36C2.31688 51.3419 2.30491 51.3237 2.33484 51.3177C2.37675 51.3419 2.42464 51.3479 2.46056 51.36L2.36477 51.2875C2.41267 51.2935 2.4426 51.2271 2.47254 51.2815L2.45458 51.1728L2.54438 51.1607C2.54438 51.1607 2.50846 51.1366 2.49648 51.1607C2.52043 51.1245 2.33484 50.9916 2.51444 51.0158C2.4426 50.9313 2.47254 50.9011 2.42464 50.7924C2.50846 50.8709 2.5324 50.7018 2.56832 50.7863C2.61023 50.738 2.50846 50.726 2.49648 50.6897C2.53839 50.6535 2.62819 50.6716 2.65813 50.7079L2.61622 50.6595H2.63418L2.5803 50.6173C2.62819 50.575 2.6701 50.6052 2.68207 50.5629L2.59826 50.5509L2.64615 50.5207C2.61023 50.5327 2.59227 50.5086 2.58628 50.4724H2.60425L2.58628 50.4361C2.63418 50.4724 2.60424 50.3999 2.66411 50.418C2.66411 50.3818 2.66411 50.3818 2.65214 50.3214L2.59826 50.3335C2.55036 50.255 2.68207 50.3335 2.68806 50.2671H2.62221C2.72997 50.1765 2.56234 50.1161 2.62819 50.0497C2.64615 50.0859 2.71799 50.0799 2.70003 50.0799C2.67609 50.0195 2.70003 49.9229 2.61622 49.8625C2.70602 49.8384 2.73595 49.8323 2.77786 49.7719C2.77786 49.7236 2.76589 49.7176 2.71201 49.7055C2.74793 49.6633 2.69405 49.5787 2.7599 49.5787C2.70602 49.5667 2.77187 49.5365 2.72398 49.5123H2.75391H2.68806C2.83174 49.4338 2.61023 49.3795 2.72997 49.301L2.74793 49.3131L2.72398 49.2768C2.72398 49.2768 2.76589 49.2829 2.8078 49.2889L2.81977 49.138L2.77187 49.1681C2.76589 49.1379 2.70602 49.1138 2.74194 49.0776C2.83773 49.1379 2.74194 49.0293 2.81977 49.0172L2.84372 49.0474C2.84372 49.0192 2.81977 49.0051 2.77187 49.0051C2.74793 48.9447 2.89161 48.9628 2.82576 48.9085V48.9447C2.78385 48.9568 2.72997 48.9266 2.73595 48.9025C2.74793 48.9025 2.77187 48.8783 2.78385 48.9025C2.7599 48.8542 2.78983 48.7877 2.76589 48.7696C2.78385 48.7455 2.83174 48.7515 2.8497 48.7696C2.79582 48.673 2.86168 48.7274 2.8078 48.6247H2.84372L2.80181 48.5945L2.87964 48.5462L2.83174 48.5643C2.82576 48.5341 2.80181 48.51 2.81977 48.4738L2.87365 48.4858C2.84372 48.3953 2.96345 48.3832 2.89161 48.2926C2.90358 48.2926 2.92154 48.2987 2.92753 48.3047C2.84372 48.2262 3.02332 48.2443 2.92154 48.1658C2.9395 48.1658 2.96345 48.1658 2.97542 48.1658L2.9395 48.1296H3.01135L2.90358 48.1054L2.98141 48.0813L2.94549 48.0692C3.08319 48.033 2.98141 47.9726 3.08319 47.9183L2.99338 47.9303C2.80181 47.7975 3.10115 47.6224 3.01135 47.4594H3.08319L2.99937 47.3929C3.05924 47.3567 3.05924 47.4171 3.10115 47.405C3.05924 47.3326 2.99339 47.3748 2.97542 47.2903C3.02332 47.248 3.02931 47.3024 3.05325 47.3265C3.01733 47.248 2.97542 47.1333 3.01733 47.0729C3.00536 47.0729 2.99338 47.0729 2.99338 47.0729C2.96345 47.0186 2.99338 46.9522 2.99338 46.8918C3.02931 46.8918 3.02931 46.9099 3.04128 46.922C3.04128 46.9039 3.07121 46.8737 3.03529 46.8555L3.09516 46.8797C3.10713 46.8374 3.05325 46.7469 3.12509 46.7408C3.09516 46.7408 3.04128 46.7408 3.04727 46.7046C3.16101 46.6804 2.99937 46.602 3.05924 46.5416C3.08319 46.5476 3.08917 46.5959 3.09516 46.5838C3.12509 46.5536 3.07121 46.5235 3.04128 46.4993H3.08319L3.02332 46.3665C3.13707 46.3423 3.00536 46.2336 3.08917 46.2397C3.08917 46.1914 3.04128 46.2819 3.02931 46.2155C3.0772 46.1974 3.00536 46.1551 3.0772 46.1612H3.08319V46.1249L3.15503 46.1551C3.13707 46.1189 3.07121 46.0887 3.01733 46.0827C3.05924 46.0464 3.02332 45.9921 3.08917 45.974L3.10713 45.9861C3.0772 45.8834 3.3047 45.817 3.18496 45.7325C3.19694 45.7264 3.2149 45.7325 3.2149 45.7385V45.6721L3.27476 45.6902L3.19095 45.5815H3.22687C3.24483 45.5151 3.22687 45.4004 3.2149 45.3158L3.23286 45.3279C3.17897 45.2313 3.26878 45.2313 3.23286 45.1588C3.24483 45.1588 3.24483 45.1589 3.25082 45.1649V45.0985L3.28674 45.1105C3.20891 45.0622 3.38851 44.9717 3.32266 45.0019C3.28674 44.9777 3.24483 44.9294 3.20292 44.9173C3.20292 44.8449 3.25082 44.8992 3.28075 44.8569C3.28075 44.8086 3.22088 44.7966 3.2568 44.7301H3.29272C3.28674 44.7 3.26279 44.6818 3.2568 44.6335L3.27476 44.6456C3.19694 44.5732 3.38252 44.555 3.22088 44.4947C3.25082 44.4645 3.22687 44.4041 3.29871 44.4101C3.25082 44.3196 3.23286 44.2471 3.20292 44.1565C3.32266 44.1445 3.19694 44.1384 3.26279 44.0841H3.19694C3.19095 43.9573 3.3466 43.8124 3.32266 43.6674H3.38851L3.31667 43.6373C3.3466 43.4863 3.37055 43.287 3.37055 43.1663C3.33463 43.124 3.26279 43.0636 3.28075 43.0033H3.28674C3.25082 42.9006 3.22088 42.7859 3.2568 42.6651C3.28674 42.6712 3.3047 42.6651 3.32266 42.6772C3.25082 42.647 3.32266 42.6047 3.32266 42.5806L3.27476 42.6108C3.2149 42.5745 3.27476 42.5262 3.31667 42.5081L3.25082 42.4538C3.25082 42.4538 3.26878 42.4417 3.27476 42.4417L3.23884 42.4296L3.32266 42.3994C3.32266 42.3994 3.28674 42.3149 3.20292 42.2908C3.23286 42.2908 3.25082 42.2364 3.26878 42.2726L3.29272 42.0734L3.26279 42.1036C3.19694 42.1036 3.16101 42.0492 3.18496 42.019C3.23884 42.0613 3.27476 42.019 3.32266 42.007C3.28674 41.9828 3.26878 42.0311 3.23286 42.019C3.19095 41.9828 3.167 41.9164 3.19694 41.8983L3.22088 41.9164C3.19694 41.8681 3.31068 41.85 3.3047 41.8017C3.25082 41.7594 3.3047 41.7292 3.19095 41.7413C3.167 41.6809 3.26279 41.7171 3.27476 41.699C3.22088 41.6688 3.2568 41.5903 3.31068 41.5783C3.14904 41.5481 3.37055 41.4213 3.23286 41.4092L3.31068 41.3609C3.27476 41.3609 3.19095 41.3488 3.17898 41.3126C3.22088 41.2764 3.28075 41.2824 3.31667 41.2764L3.17898 41.2522C3.32266 41.0409 3.22687 40.7631 3.3466 40.5276C3.31667 40.425 3.2568 40.2921 3.27476 40.1714L3.29272 40.1835L3.32864 40.0627L3.26878 40.1472C3.26878 40.1472 3.22687 40.0989 3.22687 40.0748C3.28075 39.9419 3.35259 39.7668 3.28075 39.6038C3.12509 39.5012 3.41845 39.5314 3.3047 39.4347C3.31667 39.4408 3.34062 39.4468 3.35858 39.4529C3.3047 39.3442 3.28075 39.2838 3.19095 39.1751C3.3466 39.1872 3.19095 39.1026 3.26878 39.1147L3.20891 39.1026C3.24483 39.0785 3.26279 39.0242 3.3047 39.0302L3.22687 38.9819H3.29272C3.29272 38.9155 3.24483 38.7766 3.37654 38.7464C3.28075 38.5894 3.31068 38.3418 3.33463 38.1426C3.28075 38.1124 3.28075 38.0581 3.27476 38.0098L3.35259 37.9614C3.32864 37.9131 3.23286 37.8648 3.28075 37.8226C3.29272 37.8226 3.29871 37.8226 3.29871 37.8226C3.28075 37.7743 3.32266 37.732 3.25082 37.6897C3.25082 37.6414 3.29272 37.5871 3.36456 37.6052C3.23884 37.6052 3.38252 37.4965 3.38252 37.4965C3.38252 37.4965 3.69384 34.8699 2.99937 34.2299C2.9395 34.2058 2.8976 34.1514 2.81977 34.1695V34.1454ZM1.93971 50.5267C1.93971 50.5267 1.96965 50.5267 1.98162 50.5146C1.96965 50.5207 1.95169 50.5267 1.93971 50.5267Z" fill="white"/>
</svg>
