<svg width="62" height="61" viewBox="0 0 62 61" fill="none" xmlns="http://www.w3.org/2000/svg">
<rect x="0.5" y="0.0761719" width="60.8491" height="60.8491" rx="7.02105" fill="black"/>
<path d="M33.3406 24.8511C33.708 24.428 34.0593 24.028 34.4057 23.6241C35.9357 21.8409 37.4632 20.0556 38.9935 18.2727C40.5239 16.4899 42.056 14.7087 43.5891 12.928C44.5912 11.764 45.5993 10.605 46.5968 9.43718C46.7373 9.27256 46.8795 9.2004 47.0998 9.2032C48.0676 9.21511 49.0358 9.20811 50.0036 9.20881C50.096 9.20881 50.1885 9.21651 50.2834 9.22072C50.2221 9.43053 48.0928 11.9416 46.4974 13.749C45.1965 15.2226 43.9316 16.7277 42.6504 18.2184C41.3617 19.7179 40.072 21.2164 38.7837 22.7166C37.5039 24.2066 36.2254 25.6981 34.9388 27.1976C40.5726 35.3841 46.1937 43.5527 51.847 51.7676C51.7038 51.7784 51.6173 51.7904 51.5311 51.7907C47.6357 51.7918 43.7407 51.7907 39.8454 51.7942C39.6566 51.7942 39.5323 51.7525 39.4153 51.5809C38.4727 50.1942 37.5154 48.8176 36.5641 47.4369C34.998 45.1643 33.432 42.8918 31.867 40.6185C30.6985 38.9208 29.5321 37.2213 28.3643 35.5228C28.2865 35.4097 28.2039 35.2997 28.1023 35.1596C27.7853 35.5224 27.4872 35.8598 27.194 36.2009C25.5719 38.0892 23.9509 39.9782 22.3298 41.8672C20.8605 43.5797 19.3928 45.2936 17.9224 47.0053C16.6187 48.523 15.3104 50.0366 14.0106 51.5578C13.8617 51.7319 13.7062 51.8005 13.4764 51.7974C12.5202 51.7848 11.564 51.7921 10.6077 51.7921H10.2119C12.0512 49.6211 13.8635 47.5374 15.6576 45.4386C17.4562 43.3342 19.2653 41.2385 21.0696 39.1393C22.8735 37.0405 24.677 34.9421 26.5022 32.818C21.1018 24.9692 15.7062 17.1273 10.2802 9.24173C10.4249 9.22772 10.5223 9.20986 10.6196 9.20986C14.5031 9.20846 18.3869 9.20986 22.2703 9.20495C22.478 9.20495 22.6037 9.26905 22.7239 9.44559C23.8115 11.0435 24.9096 12.6344 26.0066 14.2261C27.5597 16.4794 29.1156 18.7312 30.668 20.9849C31.4607 22.1355 32.2484 23.2889 33.0397 24.4403C33.1304 24.5723 33.2292 24.6995 33.3406 24.8511ZM46.504 48.9791C46.3292 48.7234 46.1933 48.5223 46.0557 48.3223C45.0066 46.7969 43.9569 45.2715 42.9075 43.7464C41.3432 41.4728 39.7799 39.1982 38.2146 36.9253C36.6622 34.6716 35.1066 32.4205 33.5546 30.1665C32.3591 28.4305 31.1685 26.6915 29.9738 24.9548C28.4161 22.691 26.856 20.429 25.2984 18.1652C23.9383 16.189 22.5782 14.2131 21.2247 12.2323C21.113 12.0688 20.9925 12.004 20.7967 12.0047C19.1641 12.011 17.5315 12.0078 15.8985 12.0099C15.826 12.0099 15.7539 12.033 15.6355 12.053C24.125 24.3888 32.5864 36.6843 41.0475 48.9791H46.504Z" fill="white"/>
</svg>
